# xmcd
#
# Track frame offsets: 
#        150
#        29617
#        48287
#        79282
#        97230
#        115417
#        133500
#        153727
#        185355
#        205582
#        224082
#        242405
#        257872
#        282372
#        298050
#        318690
#
# Disc length: 4453 seconds
#
# Revision: 0
# Processed by: cddbd v1.5.2PL0 Copyright (c) Steve Scherf et al.
# Submitted via: ExactAudioCopy v0.95b3
#
DISCID=fe116310
DTITLE=War  - Anthology -  1970 - 1974 - Disc One  FLAC
DYEAR=1900
DGENRE=
TTITLE0=Tobacco Road - With Eric Burdon
TTITLE1=Spill The Wine - With Eric Burdon
TTITLE2=They Can't Take Away Our Music - With Eric Burdon
TTITLE3=Sun Oh Son
TTITLE4=Lonely Feelin'
TTITLE5=All Day Music
TTITLE6=Get Down
TTITLE7=Slippin' Into Darkness
TTITLE8=The Cisco Kid
TTITLE9=The World Is A Ghetto
TTITLE10=City. Country. City
TTITLE11=Where Was You At
TTITLE12=Gypsy Man
TTITLE13=Me And Baby Brother
TTITLE14=Deliver The Word
TTITLE15=Ballero
EXTD=
EXTT0=
EXTT1=
EXTT2=
EXTT3=
EXTT4=
EXTT5=
EXTT6=
EXTT7=
EXTT8=
EXTT9=
EXTT10=
EXTT11=
EXTT12=
EXTT13=
EXTT14=
EXTT15=
PLAYORDER=
